# xmcd CD database file
#
# Track frame offsets:
#	151
#	34333
#	65074
#	90487
#	117763
#	147713
#	177048
#	207109
#
# Disc length: 3334 seconds
#
# Revision: 0
# Processed by: cddbd v1.4PL0 Copyright (c) Steve Scherf et al.
# Submitted via: CDex 1.50Beta7
#
DISCID=710d0408
DTITLE=Chakra's Dream - Yoga
DYEAR=2002
DGENRE=New Age
TTITLE0=Floral Drift
TTITLE1=Long Ago
TTITLE2=Time In
TTITLE3=Sublime Paradise
TTITLE4=Garden of Peace
TTITLE5=Ocean of Meditation
TTITLE6=Shoreline
TTITLE7=Warm Glow
EXTD=YEAR: 2002
EXTT0=
EXTT1=
EXTT2=
EXTT3=
EXTT4=
EXTT5=
EXTT6=
EXTT7=
PLAYORDER=
